<svg width="40" height="40" viewBox="0 0 40 40" fill="none" xmlns="http://www.w3.org/2000/svg">
<g filter="url(#filter0_i_524_9892)">
<mask id="path-1-inside-1_524_9892" fill="white">
<path d="M0 8C0 3.58172 3.58172 0 8 0H32C36.4183 0 40 3.58172 40 8V32C40 36.4183 36.4183 40 32 40H8C3.58172 40 0 36.4183 0 32V8Z"/>
</mask>
<path d="M0 8C0 3.58172 3.58172 0 8 0H32C36.4183 0 40 3.58172 40 8V32C40 36.4183 36.4183 40 32 40H8C3.58172 40 0 36.4183 0 32V8Z" fill="white"/>
<rect x="10.5" y="10.5" width="19" height="19" rx="3.5" stroke="#333333"/>
<path d="M-1 8C-1 3.02944 3.02944 -1 8 -1H32C36.9706 -1 41 3.02944 41 8H39C39 4.13401 35.866 1 32 1H8C4.13401 1 1 4.13401 1 8H-1ZM41 32C41 36.9706 36.9706 41 32 41H8C3.02944 41 -1 36.9706 -1 32H1C1 35.866 4.13401 39 8 39H32C35.866 39 39 35.866 39 32H41ZM8 41C3.02944 41 -1 36.9706 -1 32V8C-1 3.02944 3.02944 -1 8 -1V1C4.13401 1 1 4.13401 1 8V32C1 35.866 4.13401 39 8 39V41ZM32 -1C36.9706 -1 41 3.02944 41 8V32C41 36.9706 36.9706 41 32 41V39C35.866 39 39 35.866 39 32V8C39 4.13401 35.866 1 32 1V-1Z" fill="#333333" mask="url(#path-1-inside-1_524_9892)"/>
</g>
<defs>
<filter id="filter0_i_524_9892" x="0" y="0" width="40" height="40" filterUnits="userSpaceOnUse" color-interpolation-filters="sRGB">
<feFlood flood-opacity="0" result="BackgroundImageFix"/>
<feBlend mode="normal" in="SourceGraphic" in2="BackgroundImageFix" result="shape"/>
<feColorMatrix in="SourceAlpha" type="matrix" values="0 0 0 0 0 0 0 0 0 0 0 0 0 0 0 0 0 0 127 0" result="hardAlpha"/>
<feOffset dx="-5" dy="-5"/>
<feComposite in2="hardAlpha" operator="arithmetic" k2="-1" k3="1"/>
<feColorMatrix type="matrix" values="0 0 0 0 0 0 0 0 0 0 0 0 0 0 0 0 0 0 0.07 0"/>
<feBlend mode="normal" in2="shape" result="effect1_innerShadow_524_9892"/>
</filter>
</defs>
</svg>
