<svg width="96" height="96" viewBox="0 0 96 96" fill="none" xmlns="http://www.w3.org/2000/svg">
<g opacity="0.15">
<path d="M35.392 69.12C33.088 69.12 31.408 68.544 30.352 67.392C29.328 66.272 28.816 64.448 28.816 61.92V55.68C28.816 53.76 28.48 52.304 27.808 51.312C27.136 50.288 26.144 49.776 24.832 49.776H22.576V46.224H24.832C26.144 46.224 27.136 45.728 27.808 44.736C28.48 43.712 28.816 42.24 28.816 40.32V34.08C28.816 31.52 29.328 29.68 30.352 28.56C31.408 27.44 33.088 26.88 35.392 26.88H40V30.24H37.12C35.904 30.24 34.96 30.4 34.288 30.72C33.616 31.008 33.136 31.536 32.848 32.304C32.592 33.072 32.464 34.144 32.464 35.52V40.704C32.464 42.56 32.144 44.08 31.504 45.264C30.864 46.448 29.888 47.328 28.576 47.904V48.096C29.888 48.672 30.864 49.552 31.504 50.736C32.144 51.888 32.464 53.408 32.464 55.296V60.48C32.464 61.856 32.592 62.928 32.848 63.696C33.136 64.464 33.616 64.992 34.288 65.28C34.96 65.6 35.904 65.76 37.12 65.76H40V69.12H35.392Z" fill="#333333"/>
<path d="M64.608 69.12H60V65.76H62.88C64.096 65.76 65.04 65.6 65.712 65.28C66.384 64.992 66.848 64.464 67.104 63.696C67.392 62.928 67.536 61.856 67.536 60.48V55.296C67.536 53.408 67.856 51.888 68.496 50.736C69.136 49.552 70.112 48.672 71.424 48.096V47.904C70.112 47.328 69.136 46.448 68.496 45.264C67.856 44.08 67.536 42.56 67.536 40.704V35.52C67.536 34.144 67.392 33.072 67.104 32.304C66.848 31.536 66.384 31.008 65.712 30.72C65.04 30.4 64.096 30.24 62.88 30.24H60V26.88H64.608C66.912 26.88 68.576 27.44 69.6 28.56C70.656 29.68 71.184 31.52 71.184 34.08V40.32C71.184 42.24 71.52 43.712 72.192 44.736C72.896 45.728 73.888 46.224 75.168 46.224H77.424V49.776H75.168C73.888 49.776 72.896 50.288 72.192 51.312C71.52 52.304 71.184 53.76 71.184 55.68V61.92C71.184 64.448 70.656 66.272 69.6 67.392C68.576 68.544 66.912 69.12 64.608 69.12Z" fill="#333333"/>
</g>
<path fill-rule="evenodd" clip-rule="evenodd" d="M55.6667 53.0907L90.8787 17.8787L95.1213 22.1213L55.6667 61.576L34.8787 40.788L39.1213 36.5453L55.6667 53.0907Z" fill="white"/>
</svg>
