<svg width="132" height="24" viewBox="0 0 132 24" fill="none" xmlns="http://www.w3.org/2000/svg">
<g clip-path="url(#clip0_512_10197)">
<path d="M41.2669 0.0175781C43.6388 0.0175781 48.2613 0.800625 48.2613 3.65805C48.2613 4.82575 47.4527 5.8423 46.2532 5.8423C44.9191 5.8423 44.0026 4.70211 41.2804 4.70211C37.2509 4.70211 35.162 8.12275 35.162 12.0929C35.162 15.9669 37.2778 19.2915 41.2804 19.2915C44.0161 19.2915 45.1212 17.9177 46.4554 17.9177C47.9243 17.9177 48.5982 19.3876 48.5982 20.1294C48.5982 23.2616 43.6927 23.976 41.2804 23.976C34.6768 23.976 30.0948 18.7282 30.0948 11.9968C30.0813 5.22415 34.6364 0.0175781 41.2669 0.0175781Z" fill="#007BC3"/>
<path d="M57.3037 12.7091L51.1582 4.05442C50.8617 3.62856 50.7002 3.10652 50.7002 2.58449C50.7002 1.27942 51.6707 0.207886 53.0452 0.207886C53.8942 0.207886 54.6352 0.565068 55.0667 1.18326L59.7567 7.9834L64.4327 1.18326C64.8507 0.565068 65.6052 0.207886 66.4542 0.207886C67.8292 0.207886 68.7992 1.27942 68.7992 2.58449C68.7992 3.10652 68.6377 3.62856 68.3412 4.05442L62.1957 12.7091V21.405C62.1957 22.6139 61.4817 23.7816 59.7567 23.7816C58.0317 23.7816 57.3172 22.6139 57.3172 21.405V12.7091H57.3037Z" fill="#007BC3"/>
<path d="M71.5488 2.91291C71.5488 1.41551 72.5863 0.398926 74.0553 0.398926H79.4593C86.7503 0.398926 90.9148 5.0972 90.9148 12.3232C90.9148 19.1507 86.4943 23.588 79.7963 23.588H74.1363C73.0583 23.588 71.5623 22.9973 71.5623 21.1427V2.91291H71.5488ZM76.4273 19.0958H79.7158C83.9068 19.0958 85.8338 16.0048 85.8338 12.1034C85.8338 7.9409 83.8798 4.90487 79.3923 4.90487H76.4273V19.0958Z" fill="#007BC3"/>
<path d="M98.9445 2.72194C99.4975 1.22453 100.764 0.015625 102.422 0.015625C104.147 0.015625 105.346 1.15585 105.899 2.72194L112.273 20.4297C112.462 20.9518 112.529 21.4051 112.529 21.6387C112.529 22.9025 111.492 23.7817 110.279 23.7817C108.918 23.7817 108.23 23.0673 107.907 22.0919L106.937 19.0285H97.8935L96.9235 22.0645C96.6 23.0811 95.9125 23.7955 94.5785 23.7955C93.271 23.7955 92.166 22.82 92.166 21.515C92.166 20.9929 92.3275 20.6083 92.395 20.4435L98.9445 2.72194ZM99.295 14.5363H105.481L102.462 5.09855H102.395L99.295 14.5363Z" fill="#007BC3"/>
<path d="M129.39 3.26955C129.39 4.54714 128.541 5.67365 127.206 5.67365C125.872 5.67365 124.834 4.69826 122.88 4.69826C121.479 4.69826 120.212 5.4401 120.212 6.81385C120.212 10.1658 131.074 8.02275 131.074 16.4165C131.074 21.0735 127.233 23.9722 122.746 23.9722C120.239 23.9722 114.835 23.3814 114.835 20.3179C114.835 19.054 115.684 18.01 117.018 18.01C118.554 18.01 120.374 19.2739 122.476 19.2739C124.619 19.2739 125.791 18.0649 125.791 16.4714C125.791 12.6248 114.929 14.9466 114.929 7.39085C114.929 2.82995 118.676 0 122.988 0C124.834 0.0137376 129.39 0.700615 129.39 3.26955Z" fill="#007BC3"/>
<path d="M23.1399 13.5045H14.2453C13.8141 13.5045 13.4502 13.8617 13.4502 14.3013V23.2032C13.4502 23.6428 13.8006 24 14.2453 24H23.1399C23.5711 24 23.935 23.6428 23.935 23.2032V14.3013C23.935 13.8479 23.5846 13.5045 23.1399 13.5045Z" fill="#007BC3"/>
<path d="M5.9307 11.898C9.20555 11.898 11.8604 9.24095 11.8604 5.96335C11.8604 2.68572 9.20555 0.0286865 5.9307 0.0286865C2.65579 0.0286865 0.000976562 2.68572 0.000976562 5.96335C0.000976562 9.24095 2.65579 11.898 5.9307 11.898Z" fill="#007BC3"/>
<path d="M23.5444 2.69248L19.0971 0.12354C18.8545 -0.0138362 18.5445 -0.0138362 18.302 0.12354L13.8547 2.69248C13.6121 2.82985 13.4639 3.09086 13.4639 3.37935V8.5172C13.4639 8.8057 13.6121 9.06675 13.8547 9.2041L18.302 11.7731C18.5445 11.9104 18.8545 11.9104 19.0971 11.7731L23.5444 9.2041C23.7869 9.06675 23.9352 8.8057 23.9352 8.5172V3.37935C23.9352 3.09086 23.7869 2.82985 23.5444 2.69248Z" fill="#30B1E0"/>
<path d="M11.7526 22.7908L6.6584 13.9163C6.34845 13.3942 5.59375 13.3942 5.2838 13.9163L0.108787 22.7908C-0.201175 23.3128 0.18965 23.9722 0.796095 23.9722H11.0787C11.6852 23.9859 12.0625 23.3265 11.7526 22.7908Z" fill="#003A84"/>
</g>
<defs>
<clipPath id="clip0_512_10197">
<rect width="131.5" height="24" fill="white"/>
</clipPath>
</defs>
</svg>
