<svg width="32" height="32" viewBox="0 0 32 32" fill="none" xmlns="http://www.w3.org/2000/svg">
<path d="M16 3.09188C20.2041 3.09188 20.7021 3.10795 22.3625 3.1837C23.8976 3.25376 24.7313 3.5102 25.2861 3.72582C25.97 3.97823 26.5886 4.38069 27.0965 4.90363C27.6194 5.41151 28.0219 6.03013 28.2743 6.71401C28.4899 7.26882 28.7464 8.10251 28.8164 9.63763C28.8922 11.2979 28.9083 11.7959 28.9083 16.0001C28.9083 20.2044 28.8922 20.7022 28.8164 22.3626C28.7464 23.8978 28.4899 24.7314 28.2743 25.2863C28.0124 25.9653 27.6112 26.582 27.0965 27.0966C26.5819 27.6113 25.9652 28.0125 25.2861 28.2744C24.7313 28.4901 23.8976 28.7466 22.3625 28.8166C20.7025 28.8923 20.2046 28.9084 16 28.9084C11.7954 28.9084 11.2977 28.8923 9.63751 28.8166C8.10238 28.7465 7.26876 28.49 6.71388 28.2744C6.03 28.022 5.41138 27.6196 4.90351 27.0966C4.38057 26.5888 3.9781 25.9701 3.72569 25.2863C3.51007 24.7314 3.25357 23.8978 3.18357 22.3626C3.10782 20.7024 3.09176 20.2044 3.09176 16.0001C3.09176 11.7959 3.10782 11.2981 3.18357 9.63763C3.25363 8.10251 3.51007 7.26888 3.72569 6.71401C3.97813 6.03009 4.38064 5.41145 4.90363 4.90357C5.41151 4.38063 6.03013 3.97817 6.71401 3.72576C7.26882 3.51013 8.10251 3.25363 9.63763 3.18363C11.2979 3.10788 11.7959 3.09182 16.0001 3.09182M16.0001 0.254883C11.724 0.254883 11.1876 0.273008 9.50851 0.349633C7.83257 0.426133 6.68807 0.692258 5.68657 1.08151C4.63598 1.47686 3.68428 2.09662 2.89782 2.89757C2.09669 3.68398 1.47675 4.63569 1.08126 5.68632C0.692319 6.68788 0.426194 7.83238 0.350006 9.50832C0.273069 11.1874 0.254944 11.7238 0.254944 15.9999C0.254944 20.2761 0.273069 20.8124 0.350006 22.4916C0.426506 24.1675 0.692631 25.312 1.08188 26.3135C1.47724 27.3641 2.09699 28.3158 2.89794 29.1023C3.6844 29.9032 4.6361 30.523 5.68669 30.9183C6.68826 31.3076 7.83276 31.5737 9.50863 31.6502C11.188 31.7268 11.7242 31.7449 16.0003 31.7449C20.2763 31.7449 20.8128 31.7268 22.4919 31.6502C24.1678 31.5737 25.3123 31.3076 26.3138 30.9183C27.3597 30.5138 28.3096 29.8952 29.1026 29.1023C29.8955 28.3093 30.5141 27.3594 30.9186 26.3135C31.3079 25.3119 31.574 24.1674 31.6505 22.4916C31.7271 20.8122 31.7453 20.276 31.7453 15.9999C31.7453 11.7239 31.7271 11.1874 31.6505 9.50832C31.574 7.83238 31.3079 6.68788 30.9186 5.68638C30.5233 4.63579 29.9035 3.68409 29.1026 2.89763C28.3161 2.09652 27.3643 1.47663 26.3136 1.0812C25.3121 0.692258 24.1676 0.426133 22.4916 0.349945C20.8125 0.273008 20.2761 0.254883 16 0.254883H16.0001Z" fill="#333333"/>
<path d="M16 7.91455C14.4009 7.91455 12.8377 8.38875 11.508 9.27717C10.1784 10.1656 9.14209 11.4284 8.53013 12.9057C7.91818 14.3831 7.75806 16.0088 8.07003 17.5772C8.38201 19.1456 9.15206 20.5863 10.2828 21.717C11.4136 22.8478 12.8542 23.6178 14.4226 23.9298C15.991 24.2418 17.6167 24.0817 19.0941 23.4697C20.5715 22.8578 21.8343 21.8214 22.7227 20.4918C23.6111 19.1622 24.0853 17.599 24.0853 15.9999C24.0853 13.8555 23.2335 11.799 21.7172 10.2827C20.2009 8.76639 18.1443 7.91455 16 7.91455ZM16 21.2482C14.962 21.2482 13.9473 20.9403 13.0842 20.3636C12.2211 19.7869 11.5484 18.9673 11.1512 18.0083C10.754 17.0493 10.6501 15.994 10.8526 14.9759C11.0551 13.9579 11.555 13.0227 12.289 12.2887C13.0229 11.5547 13.9581 11.0549 14.9762 10.8524C15.9943 10.6499 17.0495 10.7538 18.0085 11.1511C18.9675 11.5483 19.7872 12.221 20.3639 13.0841C20.9406 13.9471 21.2484 14.9618 21.2484 15.9999C21.2483 17.3918 20.6954 18.7267 19.7111 19.711C18.7269 20.6952 17.3919 21.2482 16 21.2482Z" fill="#333333"/>
<path d="M24.4048 9.4848C25.4482 9.4848 26.2941 8.6389 26.2941 7.59543C26.2941 6.55196 25.4482 5.70605 24.4048 5.70605C23.3613 5.70605 22.5154 6.55196 22.5154 7.59543C22.5154 8.6389 23.3613 9.4848 24.4048 9.4848Z" fill="#333333"/>
</svg>
